<?xml version="1.0" encoding="UTF-8" standalone="no"?>
<!DOCTYPE svg PUBLIC "-//W3C//DTD SVG 1.1//EN"
 "http://www.w3.org/Graphics/SVG/1.1/DTD/svg11.dtd">
<!-- Generated by graphviz version 5.0.0 (20220707.1540)
 -->
<!-- Title: dependencies Pages: 1 -->
<svg width="1147pt" height="247pt"
 viewBox="0.00 0.00 1147.00 246.80" xmlns="http://www.w3.org/2000/svg" xmlns:xlink="http://www.w3.org/1999/xlink">
<g id="graph0" class="graph" transform="scale(1 1) rotate(0) translate(4 242.8)">
<title>dependencies</title>
<polygon fill="white" stroke="transparent" points="-4,4 -4,-242.8 1143,-242.8 1143,4 -4,4"/>
<text text-anchor="middle" x="569.5" y="-8.2" font-family="sans-serif" font-size="14.00">dependencies</text>
<g id="clust1" class="cluster">
<title>cluster_UsersModule</title>
<polygon fill="none" stroke="black" stroke-dasharray="1,5" points="8,-32.8 8,-230.8 1131,-230.8 1131,-32.8 8,-32.8"/>
</g>
<g id="clust6" class="cluster">
<title>cluster_UsersModule_providers</title>
<polygon fill="none" stroke="black" points="469,-40.8 469,-92.8 1123,-92.8 1123,-40.8 469,-40.8"/>
</g>
<g id="clust3" class="cluster">
<title>cluster_UsersModule_imports</title>
<polygon fill="none" stroke="black" points="16,-40.8 16,-92.8 461,-92.8 461,-40.8 16,-40.8"/>
</g>
<g id="clust4" class="cluster">
<title>cluster_UsersModule_exports</title>
<polygon fill="none" stroke="black" points="385,-170.8 385,-222.8 693,-222.8 693,-170.8 385,-170.8"/>
</g>
<!-- AuthModule -->
<g id="node1" class="node">
<title>AuthModule</title>
<polygon fill="#8dd3c7" stroke="black" points="452.55,-84.8 449.55,-88.8 428.55,-88.8 425.55,-84.8 365.45,-84.8 365.45,-48.8 452.55,-48.8 452.55,-84.8"/>
<text text-anchor="middle" x="409" y="-62.6" font-family="Times,serif" font-size="14.00">AuthModule</text>
</g>
<!-- UsersModule -->
<g id="node6" class="node">
<title>UsersModule</title>
<polygon fill="#8dd3c7" stroke="black" points="584.94,-149.8 581.94,-153.8 560.94,-153.8 557.94,-149.8 493.06,-149.8 493.06,-113.8 584.94,-113.8 584.94,-149.8"/>
<text text-anchor="middle" x="539" y="-127.6" font-family="Times,serif" font-size="14.00">UsersModule</text>
</g>
<!-- AuthModule&#45;&gt;UsersModule -->
<g id="edge1" class="edge">
<title>AuthModule&#45;&gt;UsersModule</title>
<path fill="none" stroke="black" d="M423.13,-85.04C423.13,-100.37 423.13,-119.8 423.13,-119.8 423.13,-119.8 483.21,-119.8 483.21,-119.8"/>
<polygon fill="black" stroke="black" points="483.21,-123.3 493.21,-119.8 483.21,-116.3 483.21,-123.3"/>
</g>
<!-- CategoryModule -->
<g id="node2" class="node">
<title>CategoryModule</title>
<polygon fill="#8dd3c7" stroke="black" points="347.37,-84.8 344.37,-88.8 323.37,-88.8 320.37,-84.8 236.63,-84.8 236.63,-48.8 347.37,-48.8 347.37,-84.8"/>
<text text-anchor="middle" x="292" y="-62.6" font-family="Times,serif" font-size="14.00">CategoryModule</text>
</g>
<!-- CategoryModule&#45;&gt;UsersModule -->
<g id="edge2" class="edge">
<title>CategoryModule&#45;&gt;UsersModule</title>
<path fill="none" stroke="black" d="M292,-84.82C292,-102.17 292,-125.8 292,-125.8 292,-125.8 483.12,-125.8 483.12,-125.8"/>
<polygon fill="black" stroke="black" points="483.12,-129.3 493.12,-125.8 483.12,-122.3 483.12,-129.3"/>
</g>
<!-- EmailSender -->
<g id="node3" class="node">
<title>EmailSender</title>
<polygon fill="#8dd3c7" stroke="black" points="218.31,-84.8 215.31,-88.8 194.31,-88.8 191.31,-84.8 129.69,-84.8 129.69,-48.8 218.31,-48.8 218.31,-84.8"/>
<text text-anchor="middle" x="174" y="-62.6" font-family="Times,serif" font-size="14.00">EmailSender</text>
</g>
<!-- EmailSender&#45;&gt;UsersModule -->
<g id="edge3" class="edge">
<title>EmailSender&#45;&gt;UsersModule</title>
<path fill="none" stroke="black" d="M174,-84.91C174,-104.14 174,-131.8 174,-131.8 174,-131.8 483.14,-131.8 483.14,-131.8"/>
<polygon fill="black" stroke="black" points="483.14,-135.3 493.14,-131.8 483.14,-128.3 483.14,-135.3"/>
</g>
<!-- Response -->
<g id="node4" class="node">
<title>Response</title>
<ellipse fill="#8dd3c7" stroke="black" cx="1067" cy="-66.8" rx="48.1" ry="18"/>
<text text-anchor="middle" x="1067" y="-62.6" font-family="Times,serif" font-size="14.00">Response</text>
</g>
<!-- Response&#45;&gt;UsersModule -->
<g id="edge4" class="edge">
<title>Response&#45;&gt;UsersModule</title>
<path fill="none" stroke="black" d="M1050.98,-83.88C1050.98,-103.14 1050.98,-131.8 1050.98,-131.8 1050.98,-131.8 594.89,-131.8 594.89,-131.8"/>
<polygon fill="black" stroke="black" points="594.89,-128.3 584.89,-131.8 594.89,-135.3 594.89,-128.3"/>
</g>
<!-- Response&#45;&gt;UsersModule -->
<g id="edge9" class="edge">
<title>Response&#45;&gt;UsersModule</title>
<path fill="none" stroke="black" d="M1083.02,-83.99C1083.02,-105 1083.02,-137.8 1083.02,-137.8 1083.02,-137.8 594.91,-137.8 594.91,-137.8"/>
<polygon fill="black" stroke="black" points="594.91,-134.3 584.91,-137.8 594.91,-141.3 594.91,-134.3"/>
</g>
<!-- StripeHelper -->
<g id="node5" class="node">
<title>StripeHelper</title>
<polygon fill="#8dd3c7" stroke="black" points="111.53,-84.8 108.53,-88.8 87.53,-88.8 84.53,-84.8 24.47,-84.8 24.47,-48.8 111.53,-48.8 111.53,-84.8"/>
<text text-anchor="middle" x="68" y="-62.6" font-family="Times,serif" font-size="14.00">StripeHelper</text>
</g>
<!-- StripeHelper&#45;&gt;UsersModule -->
<g id="edge5" class="edge">
<title>StripeHelper&#45;&gt;UsersModule</title>
<path fill="none" stroke="black" d="M68,-85.08C68,-106.12 68,-137.8 68,-137.8 68,-137.8 482.98,-137.8 482.98,-137.8"/>
<polygon fill="black" stroke="black" points="482.98,-141.3 492.98,-137.8 482.98,-134.3 482.98,-141.3"/>
</g>
<!-- EmailSender  -->
<g id="node7" class="node">
<title>EmailSender </title>
<polygon fill="#fb8072" stroke="black" points="684.81,-214.8 593.19,-214.8 593.19,-178.8 684.81,-178.8 684.81,-214.8"/>
<text text-anchor="middle" x="639" y="-192.6" font-family="Times,serif" font-size="14.00">EmailSender </text>
</g>
<!-- UsersModule&#45;&gt;EmailSender  -->
<g id="edge6" class="edge">
<title>UsersModule&#45;&gt;EmailSender </title>
<path fill="none" stroke="black" stroke-dasharray="5,2" d="M584.73,-143.8C591.92,-143.8 597.04,-143.8 597.04,-143.8 597.04,-143.8 597.04,-168.56 597.04,-168.56"/>
<polygon fill="black" stroke="black" points="593.54,-168.56 597.04,-178.56 600.54,-168.56 593.54,-168.56"/>
</g>
<!-- Response  -->
<g id="node8" class="node">
<title>Response </title>
<polygon fill="#fb8072" stroke="black" points="575.66,-214.8 502.34,-214.8 502.34,-178.8 575.66,-178.8 575.66,-214.8"/>
<text text-anchor="middle" x="539" y="-192.6" font-family="Times,serif" font-size="14.00">Response </text>
</g>
<!-- UsersModule&#45;&gt;Response  -->
<g id="edge7" class="edge">
<title>UsersModule&#45;&gt;Response </title>
<path fill="none" stroke="black" stroke-dasharray="5,2" d="M539,-149.91C539,-149.91 539,-168.79 539,-168.79"/>
<polygon fill="black" stroke="black" points="535.5,-168.79 539,-178.79 542.5,-168.79 535.5,-168.79"/>
</g>
<!-- StripeHelper  -->
<g id="node9" class="node">
<title>StripeHelper </title>
<polygon fill="#fb8072" stroke="black" points="484.53,-214.8 393.47,-214.8 393.47,-178.8 484.53,-178.8 484.53,-214.8"/>
<text text-anchor="middle" x="439" y="-192.6" font-family="Times,serif" font-size="14.00">StripeHelper </text>
</g>
<!-- UsersModule&#45;&gt;StripeHelper  -->
<g id="edge8" class="edge">
<title>UsersModule&#45;&gt;StripeHelper </title>
<path fill="none" stroke="black" stroke-dasharray="5,2" d="M493.12,-143.8C485.9,-143.8 480.77,-143.8 480.77,-143.8 480.77,-143.8 480.77,-168.56 480.77,-168.56"/>
<polygon fill="black" stroke="black" points="477.27,-168.56 480.77,-178.56 484.27,-168.56 477.27,-168.56"/>
</g>
<!-- SubscriptionService -->
<g id="node10" class="node">
<title>SubscriptionService</title>
<ellipse fill="#fdb462" stroke="black" cx="912" cy="-66.8" rx="88.63" ry="18"/>
<text text-anchor="middle" x="912" y="-62.6" font-family="Times,serif" font-size="14.00">SubscriptionService</text>
</g>
<!-- SubscriptionService&#45;&gt;UsersModule -->
<g id="edge10" class="edge">
<title>SubscriptionService&#45;&gt;UsersModule</title>
<path fill="none" stroke="black" d="M912,-84.82C912,-102.17 912,-125.8 912,-125.8 912,-125.8 594.74,-125.8 594.74,-125.8"/>
<polygon fill="black" stroke="black" points="594.74,-122.3 584.74,-125.8 594.74,-129.3 594.74,-122.3"/>
</g>
<!-- UsersManageService -->
<g id="node11" class="node">
<title>UsersManageService</title>
<ellipse fill="#fdb462" stroke="black" cx="712" cy="-66.8" rx="93.18" ry="18"/>
<text text-anchor="middle" x="712" y="-62.6" font-family="Times,serif" font-size="14.00">UsersManageService</text>
</g>
<!-- UsersManageService&#45;&gt;UsersModule -->
<g id="edge11" class="edge">
<title>UsersManageService&#45;&gt;UsersModule</title>
<path fill="none" stroke="black" d="M651.91,-80.73C651.91,-96.43 651.91,-119.8 651.91,-119.8 651.91,-119.8 594.92,-119.8 594.92,-119.8"/>
<polygon fill="black" stroke="black" points="594.92,-116.3 584.92,-119.8 594.92,-123.3 594.92,-116.3"/>
</g>
<!-- UsersService -->
<g id="node12" class="node">
<title>UsersService</title>
<ellipse fill="#fdb462" stroke="black" cx="539" cy="-66.8" rx="61.97" ry="18"/>
<text text-anchor="middle" x="539" y="-62.6" font-family="Times,serif" font-size="14.00">UsersService</text>
</g>
<!-- UsersService&#45;&gt;UsersModule -->
<g id="edge12" class="edge">
<title>UsersService&#45;&gt;UsersModule</title>
<path fill="none" stroke="black" d="M539,-84.91C539,-84.91 539,-103.79 539,-103.79"/>
<polygon fill="black" stroke="black" points="535.5,-103.79 539,-113.79 542.5,-103.79 535.5,-103.79"/>
</g>
</g>
</svg>
