<?xml version="1.0" encoding="UTF-8" standalone="no"?>
<!DOCTYPE svg PUBLIC "-//W3C//DTD SVG 1.1//EN"
 "http://www.w3.org/Graphics/SVG/1.1/DTD/svg11.dtd">
<!-- Generated by graphviz version 5.0.0 (20220707.1540)
 -->
<!-- Title: dependencies Pages: 1 -->
<svg width="424pt" height="174pt"
 viewBox="0.00 0.00 424.00 173.80" xmlns="http://www.w3.org/2000/svg" xmlns:xlink="http://www.w3.org/1999/xlink">
<g id="graph0" class="graph" transform="scale(1 1) rotate(0) translate(4 169.8)">
<title>dependencies</title>
<polygon fill="white" stroke="transparent" points="-4,4 -4,-169.8 420,-169.8 420,4 -4,4"/>
<text text-anchor="middle" x="208" y="-8.2" font-family="sans-serif" font-size="14.00">dependencies</text>
<g id="clust1" class="cluster">
<title>cluster_AuthorsModule</title>
<polygon fill="none" stroke="black" stroke-dasharray="1,5" points="8,-32.8 8,-157.8 408,-157.8 408,-32.8 8,-32.8"/>
</g>
<g id="clust6" class="cluster">
<title>cluster_AuthorsModule_providers</title>
<polygon fill="none" stroke="black" points="128,-40.8 128,-92.8 400,-92.8 400,-40.8 128,-40.8"/>
</g>
<g id="clust3" class="cluster">
<title>cluster_AuthorsModule_imports</title>
<polygon fill="none" stroke="black" points="16,-40.8 16,-92.8 120,-92.8 120,-40.8 16,-40.8"/>
</g>
<!-- AuthModule -->
<g id="node1" class="node">
<title>AuthModule</title>
<polygon fill="#8dd3c7" stroke="black" points="111.55,-84.8 108.55,-88.8 87.55,-88.8 84.55,-84.8 24.45,-84.8 24.45,-48.8 111.55,-48.8 111.55,-84.8"/>
<text text-anchor="middle" x="68" y="-62.6" font-family="Times,serif" font-size="14.00">AuthModule</text>
</g>
<!-- AuthorsModule -->
<g id="node3" class="node">
<title>AuthorsModule</title>
<polygon fill="#8dd3c7" stroke="black" points="327.16,-149.8 324.16,-153.8 303.16,-153.8 300.16,-149.8 222.84,-149.8 222.84,-113.8 327.16,-113.8 327.16,-149.8"/>
<text text-anchor="middle" x="275" y="-127.6" font-family="Times,serif" font-size="14.00">AuthorsModule</text>
</g>
<!-- AuthModule&#45;&gt;AuthorsModule -->
<g id="edge1" class="edge">
<title>AuthModule&#45;&gt;AuthorsModule</title>
<path fill="none" stroke="black" d="M68,-84.91C68,-104.14 68,-131.8 68,-131.8 68,-131.8 212.77,-131.8 212.77,-131.8"/>
<polygon fill="black" stroke="black" points="212.77,-135.3 222.77,-131.8 212.77,-128.3 212.77,-135.3"/>
</g>
<!-- Response -->
<g id="node2" class="node">
<title>Response</title>
<ellipse fill="#8dd3c7" stroke="black" cx="344" cy="-66.8" rx="48.1" ry="18"/>
<text text-anchor="middle" x="344" y="-62.6" font-family="Times,serif" font-size="14.00">Response</text>
</g>
<!-- Response&#45;&gt;AuthorsModule -->
<g id="edge2" class="edge">
<title>Response&#45;&gt;AuthorsModule</title>
<path fill="none" stroke="black" d="M306.41,-78.12C306.41,-78.12 306.41,-103.74 306.41,-103.74"/>
<polygon fill="black" stroke="black" points="302.91,-103.74 306.41,-113.74 309.91,-103.74 302.91,-103.74"/>
</g>
<!-- Response&#45;&gt;AuthorsModule -->
<g id="edge4" class="edge">
<title>Response&#45;&gt;AuthorsModule</title>
<path fill="none" stroke="black" d="M316.87,-81.88C316.87,-81.88 316.87,-103.56 316.87,-103.56"/>
<polygon fill="black" stroke="black" points="313.37,-103.56 316.87,-113.56 320.37,-103.56 313.37,-103.56"/>
</g>
<!-- AuthorsService -->
<g id="node4" class="node">
<title>AuthorsService</title>
<ellipse fill="#fdb462" stroke="black" cx="207" cy="-66.8" rx="71.22" ry="18"/>
<text text-anchor="middle" x="207" y="-62.6" font-family="Times,serif" font-size="14.00">AuthorsService</text>
</g>
<!-- AuthorsService&#45;&gt;AuthorsModule -->
<g id="edge3" class="edge">
<title>AuthorsService&#45;&gt;AuthorsModule</title>
<path fill="none" stroke="black" d="M250.39,-81.23C250.39,-81.23 250.39,-103.69 250.39,-103.69"/>
<polygon fill="black" stroke="black" points="246.89,-103.69 250.39,-113.69 253.89,-103.69 246.89,-103.69"/>
</g>
</g>
</svg>
