<?xml version="1.0" encoding="UTF-8" standalone="no"?>
<!DOCTYPE svg PUBLIC "-//W3C//DTD SVG 1.1//EN"
 "http://www.w3.org/Graphics/SVG/1.1/DTD/svg11.dtd">
<!-- Generated by graphviz version 5.0.0 (20220707.1540)
 -->
<!-- Title: dependencies Pages: 1 -->
<svg width="714pt" height="247pt"
 viewBox="0.00 0.00 714.00 246.80" xmlns="http://www.w3.org/2000/svg" xmlns:xlink="http://www.w3.org/1999/xlink">
<g id="graph0" class="graph" transform="scale(1 1) rotate(0) translate(4 242.8)">
<title>dependencies</title>
<polygon fill="white" stroke="transparent" points="-4,4 -4,-242.8 710,-242.8 710,4 -4,4"/>
<text text-anchor="middle" x="353" y="-8.2" font-family="sans-serif" font-size="14.00">dependencies</text>
<g id="clust1" class="cluster">
<title>cluster_AuthModule</title>
<polygon fill="none" stroke="black" stroke-dasharray="1,5" points="8,-32.8 8,-230.8 698,-230.8 698,-32.8 8,-32.8"/>
</g>
<g id="clust6" class="cluster">
<title>cluster_AuthModule_providers</title>
<polygon fill="none" stroke="black" points="128,-40.8 128,-92.8 690,-92.8 690,-40.8 128,-40.8"/>
</g>
<g id="clust4" class="cluster">
<title>cluster_AuthModule_exports</title>
<polygon fill="none" stroke="black" points="110,-170.8 110,-222.8 661,-222.8 661,-170.8 110,-170.8"/>
</g>
<g id="clust3" class="cluster">
<title>cluster_AuthModule_imports</title>
<polygon fill="none" stroke="black" points="16,-40.8 16,-92.8 120,-92.8 120,-40.8 16,-40.8"/>
</g>
<!-- EmailSender -->
<g id="node1" class="node">
<title>EmailSender</title>
<polygon fill="#8dd3c7" stroke="black" points="112.31,-84.8 109.31,-88.8 88.31,-88.8 85.31,-84.8 23.69,-84.8 23.69,-48.8 112.31,-48.8 112.31,-84.8"/>
<text text-anchor="middle" x="68" y="-62.6" font-family="Times,serif" font-size="14.00">EmailSender</text>
</g>
<!-- AuthModule -->
<g id="node3" class="node">
<title>AuthModule</title>
<polygon fill="#8dd3c7" stroke="black" points="409.55,-149.8 406.55,-153.8 385.55,-153.8 382.55,-149.8 322.45,-149.8 322.45,-113.8 409.55,-113.8 409.55,-149.8"/>
<text text-anchor="middle" x="366" y="-127.6" font-family="Times,serif" font-size="14.00">AuthModule</text>
</g>
<!-- EmailSender&#45;&gt;AuthModule -->
<g id="edge1" class="edge">
<title>EmailSender&#45;&gt;AuthModule</title>
<path fill="none" stroke="black" d="M68,-85.07C68,-103.36 68,-128.8 68,-128.8 68,-128.8 312.35,-128.8 312.35,-128.8"/>
<polygon fill="black" stroke="black" points="312.35,-132.3 322.35,-128.8 312.35,-125.3 312.35,-132.3"/>
</g>
<!-- Response -->
<g id="node2" class="node">
<title>Response</title>
<ellipse fill="#8dd3c7" stroke="black" cx="634" cy="-66.8" rx="48.1" ry="18"/>
<text text-anchor="middle" x="634" y="-62.6" font-family="Times,serif" font-size="14.00">Response</text>
</g>
<!-- Response&#45;&gt;AuthModule -->
<g id="edge2" class="edge">
<title>Response&#45;&gt;AuthModule</title>
<path fill="none" stroke="black" d="M608.16,-82.12C608.16,-98.39 608.16,-121.8 608.16,-121.8 608.16,-121.8 419.57,-121.8 419.57,-121.8"/>
<polygon fill="black" stroke="black" points="419.57,-118.3 409.57,-121.8 419.57,-125.3 419.57,-118.3"/>
</g>
<!-- Response&#45;&gt;AuthModule -->
<g id="edge10" class="edge">
<title>Response&#45;&gt;AuthModule</title>
<path fill="none" stroke="black" d="M630.36,-85.07C630.36,-103.36 630.36,-128.8 630.36,-128.8 630.36,-128.8 419.65,-128.8 419.65,-128.8"/>
<polygon fill="black" stroke="black" points="419.65,-125.3 409.65,-128.8 419.65,-132.3 419.65,-125.3"/>
</g>
<!-- AuthMiddleware  -->
<g id="node4" class="node">
<title>AuthMiddleware </title>
<polygon fill="#fb8072" stroke="black" points="652.64,-214.8 537.36,-214.8 537.36,-178.8 652.64,-178.8 652.64,-214.8"/>
<text text-anchor="middle" x="595" y="-192.6" font-family="Times,serif" font-size="14.00">AuthMiddleware </text>
</g>
<!-- AuthModule&#45;&gt;AuthMiddleware  -->
<g id="edge3" class="edge">
<title>AuthModule&#45;&gt;AuthMiddleware </title>
<path fill="none" stroke="black" stroke-dasharray="5,2" d="M409.78,-135.8C464.97,-135.8 552.72,-135.8 552.72,-135.8 552.72,-135.8 552.72,-168.5 552.72,-168.5"/>
<polygon fill="black" stroke="black" points="549.22,-168.5 552.72,-178.5 556.22,-168.5 549.22,-168.5"/>
</g>
<!-- AuthService  -->
<g id="node5" class="node">
<title>AuthService </title>
<polygon fill="#fb8072" stroke="black" points="519.98,-214.8 430.02,-214.8 430.02,-178.8 519.98,-178.8 519.98,-214.8"/>
<text text-anchor="middle" x="475" y="-192.6" font-family="Times,serif" font-size="14.00">AuthService </text>
</g>
<!-- AuthModule&#45;&gt;AuthService  -->
<g id="edge4" class="edge">
<title>AuthModule&#45;&gt;AuthService </title>
<path fill="none" stroke="black" stroke-dasharray="5,2" d="M409.71,-142.8C440.03,-142.8 475,-142.8 475,-142.8 475,-142.8 475,-168.52 475,-168.52"/>
<polygon fill="black" stroke="black" points="471.5,-168.52 475,-178.52 478.5,-168.52 471.5,-168.52"/>
</g>
<!-- EmailSender  -->
<g id="node6" class="node">
<title>EmailSender </title>
<polygon fill="#fb8072" stroke="black" points="411.81,-214.8 320.19,-214.8 320.19,-178.8 411.81,-178.8 411.81,-214.8"/>
<text text-anchor="middle" x="366" y="-192.6" font-family="Times,serif" font-size="14.00">EmailSender </text>
</g>
<!-- AuthModule&#45;&gt;EmailSender  -->
<g id="edge5" class="edge">
<title>AuthModule&#45;&gt;EmailSender </title>
<path fill="none" stroke="black" stroke-dasharray="5,2" d="M366,-149.91C366,-149.91 366,-168.79 366,-168.79"/>
<polygon fill="black" stroke="black" points="362.5,-168.79 366,-178.79 369.5,-168.79 362.5,-168.79"/>
</g>
<!-- Response  -->
<g id="node7" class="node">
<title>Response </title>
<polygon fill="#fb8072" stroke="black" points="302.66,-214.8 229.34,-214.8 229.34,-178.8 302.66,-178.8 302.66,-214.8"/>
<text text-anchor="middle" x="266" y="-192.6" font-family="Times,serif" font-size="14.00">Response </text>
</g>
<!-- AuthModule&#45;&gt;Response  -->
<g id="edge6" class="edge">
<title>AuthModule&#45;&gt;Response </title>
<path fill="none" stroke="black" stroke-dasharray="5,2" d="M322.31,-142.8C305.45,-142.8 290.14,-142.8 290.14,-142.8 290.14,-142.8 290.14,-168.52 290.14,-168.52"/>
<polygon fill="black" stroke="black" points="286.64,-168.52 290.14,-178.52 293.64,-168.52 286.64,-168.52"/>
</g>
<!-- UsersService  -->
<g id="node8" class="node">
<title>UsersService </title>
<polygon fill="#fb8072" stroke="black" points="211.86,-214.8 118.14,-214.8 118.14,-178.8 211.86,-178.8 211.86,-214.8"/>
<text text-anchor="middle" x="165" y="-192.6" font-family="Times,serif" font-size="14.00">UsersService </text>
</g>
<!-- AuthModule&#45;&gt;UsersService  -->
<g id="edge7" class="edge">
<title>AuthModule&#45;&gt;UsersService </title>
<path fill="none" stroke="black" stroke-dasharray="5,2" d="M322.4,-135.8C265.7,-135.8 173.85,-135.8 173.85,-135.8 173.85,-135.8 173.85,-168.5 173.85,-168.5"/>
<polygon fill="black" stroke="black" points="170.35,-168.5 173.85,-178.5 177.35,-168.5 170.35,-168.5"/>
</g>
<!-- AuthMiddleware -->
<g id="node9" class="node">
<title>AuthMiddleware</title>
<ellipse fill="#fdb462" stroke="black" cx="491" cy="-66.8" rx="77.02" ry="18"/>
<text text-anchor="middle" x="491" y="-62.6" font-family="Times,serif" font-size="14.00">AuthMiddleware</text>
</g>
<!-- AuthMiddleware&#45;&gt;AuthModule -->
<g id="edge8" class="edge">
<title>AuthMiddleware&#45;&gt;AuthModule</title>
<path fill="none" stroke="black" d="M413.83,-66.8C407.25,-66.8 403.04,-66.8 403.04,-66.8 403.04,-66.8 403.04,-103.69 403.04,-103.69"/>
<polygon fill="black" stroke="black" points="399.54,-103.69 403.04,-113.69 406.54,-103.69 399.54,-103.69"/>
</g>
<!-- AuthService -->
<g id="node10" class="node">
<title>AuthService</title>
<ellipse fill="#fdb462" stroke="black" cx="337" cy="-66.8" rx="59.11" ry="18"/>
<text text-anchor="middle" x="337" y="-62.6" font-family="Times,serif" font-size="14.00">AuthService</text>
</g>
<!-- AuthService&#45;&gt;AuthModule -->
<g id="edge9" class="edge">
<title>AuthService&#45;&gt;AuthModule</title>
<path fill="none" stroke="black" d="M359.27,-83.54C359.27,-83.54 359.27,-103.52 359.27,-103.52"/>
<polygon fill="black" stroke="black" points="355.77,-103.52 359.27,-113.52 362.77,-103.52 355.77,-103.52"/>
</g>
<!-- UsersService -->
<g id="node11" class="node">
<title>UsersService</title>
<ellipse fill="#fdb462" stroke="black" cx="198" cy="-66.8" rx="61.97" ry="18"/>
<text text-anchor="middle" x="198" y="-62.6" font-family="Times,serif" font-size="14.00">UsersService</text>
</g>
<!-- UsersService&#45;&gt;AuthModule -->
<g id="edge11" class="edge">
<title>UsersService&#45;&gt;AuthModule</title>
<path fill="none" stroke="black" d="M244.7,-78.73C244.7,-94.91 244.7,-121.8 244.7,-121.8 244.7,-121.8 312.21,-121.8 312.21,-121.8"/>
<polygon fill="black" stroke="black" points="312.21,-125.3 322.21,-121.8 312.21,-118.3 312.21,-125.3"/>
</g>
</g>
</svg>
