<?xml version="1.0" encoding="UTF-8" standalone="no"?>
<!DOCTYPE svg PUBLIC "-//W3C//DTD SVG 1.1//EN"
 "http://www.w3.org/Graphics/SVG/1.1/DTD/svg11.dtd">
<!-- Generated by graphviz version 5.0.0 (20220707.1540)
 -->
<!-- Title: dependencies Pages: 1 -->
<svg width="412pt" height="247pt"
 viewBox="0.00 0.00 412.00 246.80" xmlns="http://www.w3.org/2000/svg" xmlns:xlink="http://www.w3.org/1999/xlink">
<g id="graph0" class="graph" transform="scale(1 1) rotate(0) translate(4 242.8)">
<title>dependencies</title>
<polygon fill="white" stroke="transparent" points="-4,4 -4,-242.8 408,-242.8 408,4 -4,4"/>
<text text-anchor="middle" x="202" y="-8.2" font-family="sans-serif" font-size="14.00">dependencies</text>
<g id="clust1" class="cluster">
<title>cluster_AssetsModule</title>
<polygon fill="none" stroke="black" stroke-dasharray="1,5" points="8,-32.8 8,-230.8 396,-230.8 396,-32.8 8,-32.8"/>
</g>
<g id="clust4" class="cluster">
<title>cluster_AssetsModule_exports</title>
<polygon fill="none" stroke="black" points="209,-170.8 209,-222.8 323,-222.8 323,-170.8 209,-170.8"/>
</g>
<g id="clust6" class="cluster">
<title>cluster_AssetsModule_providers</title>
<polygon fill="none" stroke="black" points="128,-40.8 128,-92.8 388,-92.8 388,-40.8 128,-40.8"/>
</g>
<g id="clust3" class="cluster">
<title>cluster_AssetsModule_imports</title>
<polygon fill="none" stroke="black" points="16,-40.8 16,-92.8 120,-92.8 120,-40.8 16,-40.8"/>
</g>
<!-- AuthModule -->
<g id="node1" class="node">
<title>AuthModule</title>
<polygon fill="#8dd3c7" stroke="black" points="111.55,-84.8 108.55,-88.8 87.55,-88.8 84.55,-84.8 24.45,-84.8 24.45,-48.8 111.55,-48.8 111.55,-84.8"/>
<text text-anchor="middle" x="68" y="-62.6" font-family="Times,serif" font-size="14.00">AuthModule</text>
</g>
<!-- AssetsModule -->
<g id="node3" class="node">
<title>AssetsModule</title>
<polygon fill="#8dd3c7" stroke="black" points="314.11,-149.8 311.11,-153.8 290.11,-153.8 287.11,-149.8 217.89,-149.8 217.89,-113.8 314.11,-113.8 314.11,-149.8"/>
<text text-anchor="middle" x="266" y="-127.6" font-family="Times,serif" font-size="14.00">AssetsModule</text>
</g>
<!-- AuthModule&#45;&gt;AssetsModule -->
<g id="edge1" class="edge">
<title>AuthModule&#45;&gt;AssetsModule</title>
<path fill="none" stroke="black" d="M68,-84.91C68,-104.14 68,-131.8 68,-131.8 68,-131.8 207.82,-131.8 207.82,-131.8"/>
<polygon fill="black" stroke="black" points="207.82,-135.3 217.82,-131.8 207.82,-128.3 207.82,-135.3"/>
</g>
<!-- Response -->
<g id="node2" class="node">
<title>Response</title>
<ellipse fill="#8dd3c7" stroke="black" cx="332" cy="-66.8" rx="48.1" ry="18"/>
<text text-anchor="middle" x="332" y="-62.6" font-family="Times,serif" font-size="14.00">Response</text>
</g>
<!-- Response&#45;&gt;AssetsModule -->
<g id="edge2" class="edge">
<title>Response&#45;&gt;AssetsModule</title>
<path fill="none" stroke="black" d="M293.98,-77.83C293.98,-77.83 293.98,-103.58 293.98,-103.58"/>
<polygon fill="black" stroke="black" points="290.48,-103.58 293.98,-113.58 297.48,-103.58 290.48,-103.58"/>
</g>
<!-- Response&#45;&gt;AssetsModule -->
<g id="edge5" class="edge">
<title>Response&#45;&gt;AssetsModule</title>
<path fill="none" stroke="black" d="M304.02,-81.55C304.02,-81.55 304.02,-103.39 304.02,-103.39"/>
<polygon fill="black" stroke="black" points="300.52,-103.39 304.02,-113.39 307.52,-103.39 300.52,-103.39"/>
</g>
<!-- AssetsService  -->
<g id="node4" class="node">
<title>AssetsService </title>
<polygon fill="#fb8072" stroke="black" points="315.04,-214.8 216.96,-214.8 216.96,-178.8 315.04,-178.8 315.04,-214.8"/>
<text text-anchor="middle" x="266" y="-192.6" font-family="Times,serif" font-size="14.00">AssetsService </text>
</g>
<!-- AssetsModule&#45;&gt;AssetsService  -->
<g id="edge3" class="edge">
<title>AssetsModule&#45;&gt;AssetsService </title>
<path fill="none" stroke="black" stroke-dasharray="5,2" d="M266,-149.91C266,-149.91 266,-168.79 266,-168.79"/>
<polygon fill="black" stroke="black" points="262.5,-168.79 266,-178.79 269.5,-168.79 262.5,-168.79"/>
</g>
<!-- AssetsService -->
<g id="node5" class="node">
<title>AssetsService</title>
<ellipse fill="#fdb462" stroke="black" cx="201" cy="-66.8" rx="65.42" ry="18"/>
<text text-anchor="middle" x="201" y="-62.6" font-family="Times,serif" font-size="14.00">AssetsService</text>
</g>
<!-- AssetsService&#45;&gt;AssetsModule -->
<g id="edge4" class="edge">
<title>AssetsService&#45;&gt;AssetsModule</title>
<path fill="none" stroke="black" d="M242.08,-80.9C242.08,-80.9 242.08,-103.52 242.08,-103.52"/>
<polygon fill="black" stroke="black" points="238.58,-103.52 242.08,-113.52 245.58,-103.52 238.58,-103.52"/>
</g>
</g>
</svg>
