<?xml version="1.0" encoding="UTF-8" standalone="no"?>
<!DOCTYPE svg PUBLIC "-//W3C//DTD SVG 1.1//EN"
 "http://www.w3.org/Graphics/SVG/1.1/DTD/svg11.dtd">
<!-- Generated by graphviz version 5.0.0 (20220707.1540)
 -->
<!-- Title: dependencies Pages: 1 -->
<svg width="430pt" height="247pt"
 viewBox="0.00 0.00 430.00 246.80" xmlns="http://www.w3.org/2000/svg" xmlns:xlink="http://www.w3.org/1999/xlink">
<g id="graph0" class="graph" transform="scale(1 1) rotate(0) translate(4 242.8)">
<title>dependencies</title>
<polygon fill="white" stroke="transparent" points="-4,4 -4,-242.8 426,-242.8 426,4 -4,4"/>
<text text-anchor="middle" x="211" y="-8.2" font-family="sans-serif" font-size="14.00">dependencies</text>
<g id="clust1" class="cluster">
<title>cluster_ChaptersModule</title>
<polygon fill="none" stroke="black" stroke-dasharray="1,5" points="8,-32.8 8,-230.8 414,-230.8 414,-32.8 8,-32.8"/>
</g>
<g id="clust3" class="cluster">
<title>cluster_ChaptersModule_imports</title>
<polygon fill="none" stroke="black" points="188,-40.8 188,-92.8 406,-92.8 406,-40.8 188,-40.8"/>
</g>
<g id="clust4" class="cluster">
<title>cluster_ChaptersModule_exports</title>
<polygon fill="none" stroke="black" points="180,-170.8 180,-222.8 308,-222.8 308,-170.8 180,-170.8"/>
</g>
<g id="clust6" class="cluster">
<title>cluster_ChaptersModule_providers</title>
<polygon fill="none" stroke="black" points="16,-40.8 16,-92.8 180,-92.8 180,-40.8 16,-40.8"/>
</g>
<!-- AuthModule -->
<g id="node1" class="node">
<title>AuthModule</title>
<polygon fill="#8dd3c7" stroke="black" points="397.55,-84.8 394.55,-88.8 373.55,-88.8 370.55,-84.8 310.45,-84.8 310.45,-48.8 397.55,-48.8 397.55,-84.8"/>
<text text-anchor="middle" x="354" y="-62.6" font-family="Times,serif" font-size="14.00">AuthModule</text>
</g>
<!-- ChaptersModule -->
<g id="node3" class="node">
<title>ChaptersModule</title>
<polygon fill="#8dd3c7" stroke="black" points="298.82,-149.8 295.82,-153.8 274.82,-153.8 271.82,-149.8 189.18,-149.8 189.18,-113.8 298.82,-113.8 298.82,-149.8"/>
<text text-anchor="middle" x="244" y="-127.6" font-family="Times,serif" font-size="14.00">ChaptersModule</text>
</g>
<!-- AuthModule&#45;&gt;ChaptersModule -->
<g id="edge1" class="edge">
<title>AuthModule&#45;&gt;ChaptersModule</title>
<path fill="none" stroke="black" d="M354,-84.91C354,-104.14 354,-131.8 354,-131.8 354,-131.8 308.68,-131.8 308.68,-131.8"/>
<polygon fill="black" stroke="black" points="308.68,-128.3 298.68,-131.8 308.68,-135.3 308.68,-128.3"/>
</g>
<!-- Response -->
<g id="node2" class="node">
<title>Response</title>
<ellipse fill="#8dd3c7" stroke="black" cx="244" cy="-66.8" rx="48.1" ry="18"/>
<text text-anchor="middle" x="244" y="-62.6" font-family="Times,serif" font-size="14.00">Response</text>
</g>
<!-- Response&#45;&gt;ChaptersModule -->
<g id="edge2" class="edge">
<title>Response&#45;&gt;ChaptersModule</title>
<path fill="none" stroke="black" d="M260.02,-83.88C260.02,-83.88 260.02,-103.7 260.02,-103.7"/>
<polygon fill="black" stroke="black" points="256.52,-103.7 260.02,-113.7 263.52,-103.7 256.52,-103.7"/>
</g>
<!-- Response&#45;&gt;ChaptersModule -->
<g id="edge5" class="edge">
<title>Response&#45;&gt;ChaptersModule</title>
<path fill="none" stroke="black" d="M227.98,-83.88C227.98,-83.88 227.98,-103.7 227.98,-103.7"/>
<polygon fill="black" stroke="black" points="224.48,-103.7 227.98,-113.7 231.48,-103.7 224.48,-103.7"/>
</g>
<!-- ChaptersService  -->
<g id="node4" class="node">
<title>ChaptersService </title>
<polygon fill="#fb8072" stroke="black" points="299.75,-214.8 188.25,-214.8 188.25,-178.8 299.75,-178.8 299.75,-214.8"/>
<text text-anchor="middle" x="244" y="-192.6" font-family="Times,serif" font-size="14.00">ChaptersService </text>
</g>
<!-- ChaptersModule&#45;&gt;ChaptersService  -->
<g id="edge3" class="edge">
<title>ChaptersModule&#45;&gt;ChaptersService </title>
<path fill="none" stroke="black" stroke-dasharray="5,2" d="M244,-149.91C244,-149.91 244,-168.79 244,-168.79"/>
<polygon fill="black" stroke="black" points="240.5,-168.79 244,-178.79 247.5,-168.79 240.5,-168.79"/>
</g>
<!-- ChaptersService -->
<g id="node5" class="node">
<title>ChaptersService</title>
<ellipse fill="#fdb462" stroke="black" cx="98" cy="-66.8" rx="74.14" ry="18"/>
<text text-anchor="middle" x="98" y="-62.6" font-family="Times,serif" font-size="14.00">ChaptersService</text>
</g>
<!-- ChaptersService&#45;&gt;ChaptersModule -->
<g id="edge4" class="edge">
<title>ChaptersService&#45;&gt;ChaptersModule</title>
<path fill="none" stroke="black" d="M98,-84.91C98,-104.14 98,-131.8 98,-131.8 98,-131.8 179.22,-131.8 179.22,-131.8"/>
<polygon fill="black" stroke="black" points="179.22,-135.3 189.22,-131.8 179.22,-128.3 179.22,-135.3"/>
</g>
</g>
</svg>
