<?xml version="1.0" encoding="UTF-8" standalone="no"?>
<!DOCTYPE svg PUBLIC "-//W3C//DTD SVG 1.1//EN"
 "http://www.w3.org/Graphics/SVG/1.1/DTD/svg11.dtd">
<!-- Generated by graphviz version 5.0.0 (20220707.1540)
 -->
<!-- Title: dependencies Pages: 1 -->
<svg width="581pt" height="247pt"
 viewBox="0.00 0.00 581.00 246.80" xmlns="http://www.w3.org/2000/svg" xmlns:xlink="http://www.w3.org/1999/xlink">
<g id="graph0" class="graph" transform="scale(1 1) rotate(0) translate(4 242.8)">
<title>dependencies</title>
<polygon fill="white" stroke="transparent" points="-4,4 -4,-242.8 577,-242.8 577,4 -4,4"/>
<text text-anchor="middle" x="286.5" y="-8.2" font-family="sans-serif" font-size="14.00">dependencies</text>
<g id="clust1" class="cluster">
<title>cluster_CategoryModule</title>
<polygon fill="none" stroke="black" stroke-dasharray="1,5" points="8,-32.8 8,-230.8 565,-230.8 565,-32.8 8,-32.8"/>
</g>
<g id="clust4" class="cluster">
<title>cluster_CategoryModule_exports</title>
<polygon fill="none" stroke="black" points="306,-170.8 306,-222.8 434,-222.8 434,-170.8 306,-170.8"/>
</g>
<g id="clust6" class="cluster">
<title>cluster_CategoryModule_providers</title>
<polygon fill="none" stroke="black" points="128,-40.8 128,-92.8 557,-92.8 557,-40.8 128,-40.8"/>
</g>
<g id="clust3" class="cluster">
<title>cluster_CategoryModule_imports</title>
<polygon fill="none" stroke="black" points="16,-40.8 16,-92.8 120,-92.8 120,-40.8 16,-40.8"/>
</g>
<!-- AuthModule -->
<g id="node1" class="node">
<title>AuthModule</title>
<polygon fill="#8dd3c7" stroke="black" points="111.55,-84.8 108.55,-88.8 87.55,-88.8 84.55,-84.8 24.45,-84.8 24.45,-48.8 111.55,-48.8 111.55,-84.8"/>
<text text-anchor="middle" x="68" y="-62.6" font-family="Times,serif" font-size="14.00">AuthModule</text>
</g>
<!-- CategoryModule -->
<g id="node3" class="node">
<title>CategoryModule</title>
<polygon fill="#8dd3c7" stroke="black" points="425.37,-149.8 422.37,-153.8 401.37,-153.8 398.37,-149.8 314.63,-149.8 314.63,-113.8 425.37,-113.8 425.37,-149.8"/>
<text text-anchor="middle" x="370" y="-127.6" font-family="Times,serif" font-size="14.00">CategoryModule</text>
</g>
<!-- AuthModule&#45;&gt;CategoryModule -->
<g id="edge1" class="edge">
<title>AuthModule&#45;&gt;CategoryModule</title>
<path fill="none" stroke="black" d="M68,-85.08C68,-106.12 68,-137.8 68,-137.8 68,-137.8 304.61,-137.8 304.61,-137.8"/>
<polygon fill="black" stroke="black" points="304.61,-141.3 314.61,-137.8 304.61,-134.3 304.61,-141.3"/>
</g>
<!-- Response -->
<g id="node2" class="node">
<title>Response</title>
<ellipse fill="#8dd3c7" stroke="black" cx="501" cy="-66.8" rx="48.1" ry="18"/>
<text text-anchor="middle" x="501" y="-62.6" font-family="Times,serif" font-size="14.00">Response</text>
</g>
<!-- Response&#45;&gt;CategoryModule -->
<g id="edge2" class="edge">
<title>Response&#45;&gt;CategoryModule</title>
<path fill="none" stroke="black" d="M484.98,-83.87C484.98,-101.29 484.98,-125.8 484.98,-125.8 484.98,-125.8 435.47,-125.8 435.47,-125.8"/>
<polygon fill="black" stroke="black" points="435.47,-122.3 425.47,-125.8 435.47,-129.3 435.47,-122.3"/>
</g>
<!-- Response&#45;&gt;CategoryModule -->
<g id="edge6" class="edge">
<title>Response&#45;&gt;CategoryModule</title>
<path fill="none" stroke="black" d="M517.02,-83.99C517.02,-105 517.02,-137.8 517.02,-137.8 517.02,-137.8 435.58,-137.8 435.58,-137.8"/>
<polygon fill="black" stroke="black" points="435.58,-134.3 425.58,-137.8 435.58,-141.3 435.58,-134.3"/>
</g>
<!-- CategoryService  -->
<g id="node4" class="node">
<title>CategoryService </title>
<polygon fill="#fb8072" stroke="black" points="426.3,-214.8 313.7,-214.8 313.7,-178.8 426.3,-178.8 426.3,-214.8"/>
<text text-anchor="middle" x="370" y="-192.6" font-family="Times,serif" font-size="14.00">CategoryService </text>
</g>
<!-- CategoryModule&#45;&gt;CategoryService  -->
<g id="edge3" class="edge">
<title>CategoryModule&#45;&gt;CategoryService </title>
<path fill="none" stroke="black" stroke-dasharray="5,2" d="M370,-149.91C370,-149.91 370,-168.79 370,-168.79"/>
<polygon fill="black" stroke="black" points="366.5,-168.79 370,-178.79 373.5,-168.79 366.5,-168.79"/>
</g>
<!-- AssetsService -->
<g id="node5" class="node">
<title>AssetsService</title>
<ellipse fill="#fdb462" stroke="black" cx="370" cy="-66.8" rx="65.42" ry="18"/>
<text text-anchor="middle" x="370" y="-62.6" font-family="Times,serif" font-size="14.00">AssetsService</text>
</g>
<!-- AssetsService&#45;&gt;CategoryModule -->
<g id="edge4" class="edge">
<title>AssetsService&#45;&gt;CategoryModule</title>
<path fill="none" stroke="black" d="M370,-84.91C370,-84.91 370,-103.79 370,-103.79"/>
<polygon fill="black" stroke="black" points="366.5,-103.79 370,-113.79 373.5,-103.79 366.5,-103.79"/>
</g>
<!-- CategoryService -->
<g id="node6" class="node">
<title>CategoryService</title>
<ellipse fill="#fdb462" stroke="black" cx="211" cy="-66.8" rx="75.28" ry="18"/>
<text text-anchor="middle" x="211" y="-62.6" font-family="Times,serif" font-size="14.00">CategoryService</text>
</g>
<!-- CategoryService&#45;&gt;CategoryModule -->
<g id="edge5" class="edge">
<title>CategoryService&#45;&gt;CategoryModule</title>
<path fill="none" stroke="black" d="M211,-84.82C211,-102.17 211,-125.8 211,-125.8 211,-125.8 304.39,-125.8 304.39,-125.8"/>
<polygon fill="black" stroke="black" points="304.39,-129.3 314.39,-125.8 304.39,-122.3 304.39,-129.3"/>
</g>
</g>
</svg>
