<?xml version="1.0" encoding="UTF-8" standalone="no"?>
<!DOCTYPE svg PUBLIC "-//W3C//DTD SVG 1.1//EN"
 "http://www.w3.org/Graphics/SVG/1.1/DTD/svg11.dtd">
<!-- Generated by graphviz version 5.0.0 (20220707.1540)
 -->
<!-- Title: dependencies Pages: 1 -->
<svg width="447pt" height="247pt"
 viewBox="0.00 0.00 447.00 246.80" xmlns="http://www.w3.org/2000/svg" xmlns:xlink="http://www.w3.org/1999/xlink">
<g id="graph0" class="graph" transform="scale(1 1) rotate(0) translate(4 242.8)">
<title>dependencies</title>
<polygon fill="white" stroke="transparent" points="-4,4 -4,-242.8 443,-242.8 443,4 -4,4"/>
<text text-anchor="middle" x="219.5" y="-8.2" font-family="sans-serif" font-size="14.00">dependencies</text>
<g id="clust1" class="cluster">
<title>cluster_CampaignsModule</title>
<polygon fill="none" stroke="black" stroke-dasharray="1,5" points="8,-32.8 8,-230.8 431,-230.8 431,-32.8 8,-32.8"/>
</g>
<g id="clust4" class="cluster">
<title>cluster_CampaignsModule_exports</title>
<polygon fill="none" stroke="black" points="111,-170.8 111,-222.8 251,-222.8 251,-170.8 111,-170.8"/>
</g>
<g id="clust6" class="cluster">
<title>cluster_CampaignsModule_providers</title>
<polygon fill="none" stroke="black" points="241,-40.8 241,-92.8 423,-92.8 423,-40.8 241,-40.8"/>
</g>
<g id="clust3" class="cluster">
<title>cluster_CampaignsModule_imports</title>
<polygon fill="none" stroke="black" points="16,-40.8 16,-92.8 233,-92.8 233,-40.8 16,-40.8"/>
</g>
<!-- AuthModule -->
<g id="node1" class="node">
<title>AuthModule</title>
<polygon fill="#8dd3c7" stroke="black" points="224.55,-84.8 221.55,-88.8 200.55,-88.8 197.55,-84.8 137.45,-84.8 137.45,-48.8 224.55,-48.8 224.55,-84.8"/>
<text text-anchor="middle" x="181" y="-62.6" font-family="Times,serif" font-size="14.00">AuthModule</text>
</g>
<!-- CampaignsModule -->
<g id="node3" class="node">
<title>CampaignsModule</title>
<polygon fill="#8dd3c7" stroke="black" points="242.05,-149.8 239.05,-153.8 218.05,-153.8 215.05,-149.8 119.95,-149.8 119.95,-113.8 242.05,-113.8 242.05,-149.8"/>
<text text-anchor="middle" x="181" y="-127.6" font-family="Times,serif" font-size="14.00">CampaignsModule</text>
</g>
<!-- AuthModule&#45;&gt;CampaignsModule -->
<g id="edge1" class="edge">
<title>AuthModule&#45;&gt;CampaignsModule</title>
<path fill="none" stroke="black" d="M181,-84.91C181,-84.91 181,-103.79 181,-103.79"/>
<polygon fill="black" stroke="black" points="177.5,-103.79 181,-113.79 184.5,-103.79 177.5,-103.79"/>
</g>
<!-- BooksModule -->
<g id="node2" class="node">
<title>BooksModule</title>
<polygon fill="#8dd3c7" stroke="black" points="119.84,-84.8 116.84,-88.8 95.84,-88.8 92.84,-84.8 24.16,-84.8 24.16,-48.8 119.84,-48.8 119.84,-84.8"/>
<text text-anchor="middle" x="72" y="-62.6" font-family="Times,serif" font-size="14.00">BooksModule</text>
</g>
<!-- BooksModule&#45;&gt;CampaignsModule -->
<g id="edge2" class="edge">
<title>BooksModule&#45;&gt;CampaignsModule</title>
<path fill="none" stroke="black" d="M120.14,-66.8C125.16,-66.8 128.48,-66.8 128.48,-66.8 128.48,-66.8 128.48,-103.69 128.48,-103.69"/>
<polygon fill="black" stroke="black" points="124.98,-103.69 128.48,-113.69 131.98,-103.69 124.98,-103.69"/>
</g>
<!-- CampaignsService  -->
<g id="node4" class="node">
<title>CampaignsService </title>
<polygon fill="#fb8072" stroke="black" points="243.47,-214.8 118.53,-214.8 118.53,-178.8 243.47,-178.8 243.47,-214.8"/>
<text text-anchor="middle" x="181" y="-192.6" font-family="Times,serif" font-size="14.00">CampaignsService </text>
</g>
<!-- CampaignsModule&#45;&gt;CampaignsService  -->
<g id="edge3" class="edge">
<title>CampaignsModule&#45;&gt;CampaignsService </title>
<path fill="none" stroke="black" stroke-dasharray="5,2" d="M181,-149.91C181,-149.91 181,-168.79 181,-168.79"/>
<polygon fill="black" stroke="black" points="177.5,-168.79 181,-178.79 184.5,-168.79 177.5,-168.79"/>
</g>
<!-- CampaignsService -->
<g id="node5" class="node">
<title>CampaignsService</title>
<ellipse fill="#fdb462" stroke="black" cx="332" cy="-66.8" rx="83.39" ry="18"/>
<text text-anchor="middle" x="332" y="-62.6" font-family="Times,serif" font-size="14.00">CampaignsService</text>
</g>
<!-- CampaignsService&#45;&gt;CampaignsModule -->
<g id="edge4" class="edge">
<title>CampaignsService&#45;&gt;CampaignsModule</title>
<path fill="none" stroke="black" d="M248.48,-66.8C239.49,-66.8 233.52,-66.8 233.52,-66.8 233.52,-66.8 233.52,-103.69 233.52,-103.69"/>
<polygon fill="black" stroke="black" points="230.02,-103.69 233.52,-113.69 237.02,-103.69 230.02,-103.69"/>
</g>
</g>
</svg>
