<?xml version="1.0" encoding="UTF-8" standalone="no"?>
<!DOCTYPE svg PUBLIC "-//W3C//DTD SVG 1.1//EN"
 "http://www.w3.org/Graphics/SVG/1.1/DTD/svg11.dtd">
<!-- Generated by graphviz version 5.0.0 (20220707.1540)
 -->
<!-- Title: dependencies Pages: 1 -->
<svg width="1364pt" height="247pt"
 viewBox="0.00 0.00 1364.00 246.80" xmlns="http://www.w3.org/2000/svg" xmlns:xlink="http://www.w3.org/1999/xlink">
<g id="graph0" class="graph" transform="scale(1 1) rotate(0) translate(4 242.8)">
<title>dependencies</title>
<polygon fill="white" stroke="transparent" points="-4,4 -4,-242.8 1360,-242.8 1360,4 -4,4"/>
<text text-anchor="middle" x="678" y="-8.2" font-family="sans-serif" font-size="14.00">dependencies</text>
<g id="clust1" class="cluster">
<title>cluster_SubscriptionModule</title>
<polygon fill="none" stroke="black" stroke-dasharray="1,5" points="8,-32.8 8,-230.8 1348,-230.8 1348,-32.8 8,-32.8"/>
</g>
<g id="clust3" class="cluster">
<title>cluster_SubscriptionModule_imports</title>
<polygon fill="none" stroke="black" points="1024,-40.8 1024,-92.8 1340,-92.8 1340,-40.8 1024,-40.8"/>
</g>
<g id="clust6" class="cluster">
<title>cluster_SubscriptionModule_providers</title>
<polygon fill="none" stroke="black" points="16,-40.8 16,-92.8 1016,-92.8 1016,-40.8 16,-40.8"/>
</g>
<g id="clust4" class="cluster">
<title>cluster_SubscriptionModule_exports</title>
<polygon fill="none" stroke="black" points="550,-170.8 550,-222.8 1016,-222.8 1016,-170.8 550,-170.8"/>
</g>
<!-- AuthModule -->
<g id="node1" class="node">
<title>AuthModule</title>
<polygon fill="#8dd3c7" stroke="black" points="1331.55,-84.8 1328.55,-88.8 1307.55,-88.8 1304.55,-84.8 1244.45,-84.8 1244.45,-48.8 1331.55,-48.8 1331.55,-84.8"/>
<text text-anchor="middle" x="1288" y="-62.6" font-family="Times,serif" font-size="14.00">AuthModule</text>
</g>
<!-- SubscriptionModule -->
<g id="node4" class="node">
<title>SubscriptionModule</title>
<polygon fill="#8dd3c7" stroke="black" points="829.33,-149.8 826.33,-153.8 805.33,-153.8 802.33,-149.8 698.67,-149.8 698.67,-113.8 829.33,-113.8 829.33,-149.8"/>
<text text-anchor="middle" x="764" y="-127.6" font-family="Times,serif" font-size="14.00">SubscriptionModule</text>
</g>
<!-- AuthModule&#45;&gt;SubscriptionModule -->
<g id="edge1" class="edge">
<title>AuthModule&#45;&gt;SubscriptionModule</title>
<path fill="none" stroke="black" d="M1288,-85.08C1288,-106.12 1288,-137.8 1288,-137.8 1288,-137.8 839.31,-137.8 839.31,-137.8"/>
<polygon fill="black" stroke="black" points="839.31,-134.3 829.31,-137.8 839.31,-141.3 839.31,-134.3"/>
</g>
<!-- EmailSender -->
<g id="node2" class="node">
<title>EmailSender</title>
<polygon fill="#8dd3c7" stroke="black" points="1226.31,-84.8 1223.31,-88.8 1202.31,-88.8 1199.31,-84.8 1137.69,-84.8 1137.69,-48.8 1226.31,-48.8 1226.31,-84.8"/>
<text text-anchor="middle" x="1182" y="-62.6" font-family="Times,serif" font-size="14.00">EmailSender</text>
</g>
<!-- EmailSender&#45;&gt;SubscriptionModule -->
<g id="edge2" class="edge">
<title>EmailSender&#45;&gt;SubscriptionModule</title>
<path fill="none" stroke="black" d="M1182,-84.91C1182,-104.14 1182,-131.8 1182,-131.8 1182,-131.8 839.31,-131.8 839.31,-131.8"/>
<polygon fill="black" stroke="black" points="839.31,-128.3 829.31,-131.8 839.31,-135.3 839.31,-128.3"/>
</g>
<!-- StripeHelper -->
<g id="node3" class="node">
<title>StripeHelper</title>
<polygon fill="#8dd3c7" stroke="black" points="1119.53,-84.8 1116.53,-88.8 1095.53,-88.8 1092.53,-84.8 1032.47,-84.8 1032.47,-48.8 1119.53,-48.8 1119.53,-84.8"/>
<text text-anchor="middle" x="1076" y="-62.6" font-family="Times,serif" font-size="14.00">StripeHelper</text>
</g>
<!-- StripeHelper&#45;&gt;SubscriptionModule -->
<g id="edge3" class="edge">
<title>StripeHelper&#45;&gt;SubscriptionModule</title>
<path fill="none" stroke="black" d="M1076,-84.82C1076,-102.17 1076,-125.8 1076,-125.8 1076,-125.8 839.41,-125.8 839.41,-125.8"/>
<polygon fill="black" stroke="black" points="839.41,-122.3 829.41,-125.8 839.41,-129.3 839.41,-122.3"/>
</g>
<!-- CronSubscriptionService  -->
<g id="node5" class="node">
<title>CronSubscriptionService </title>
<polygon fill="#fb8072" stroke="black" points="1008.26,-214.8 847.74,-214.8 847.74,-178.8 1008.26,-178.8 1008.26,-214.8"/>
<text text-anchor="middle" x="928" y="-192.6" font-family="Times,serif" font-size="14.00">CronSubscriptionService </text>
</g>
<!-- SubscriptionModule&#45;&gt;CronSubscriptionService  -->
<g id="edge4" class="edge">
<title>SubscriptionModule&#45;&gt;CronSubscriptionService </title>
<path fill="none" stroke="black" stroke-dasharray="5,2" d="M829.36,-143.8C846.36,-143.8 860,-143.8 860,-143.8 860,-143.8 860,-168.56 860,-168.56"/>
<polygon fill="black" stroke="black" points="856.5,-168.56 860,-178.56 863.5,-168.56 856.5,-168.56"/>
</g>
<!-- SubscriptionService  -->
<g id="node6" class="node">
<title>SubscriptionService </title>
<polygon fill="#fb8072" stroke="black" points="830.26,-214.8 697.74,-214.8 697.74,-178.8 830.26,-178.8 830.26,-214.8"/>
<text text-anchor="middle" x="764" y="-192.6" font-family="Times,serif" font-size="14.00">SubscriptionService </text>
</g>
<!-- SubscriptionModule&#45;&gt;SubscriptionService  -->
<g id="edge5" class="edge">
<title>SubscriptionModule&#45;&gt;SubscriptionService </title>
<path fill="none" stroke="black" stroke-dasharray="5,2" d="M764,-149.91C764,-149.91 764,-168.79 764,-168.79"/>
<polygon fill="black" stroke="black" points="760.5,-168.79 764,-178.79 767.5,-168.79 760.5,-168.79"/>
</g>
<!-- WebhooksService  -->
<g id="node7" class="node">
<title>WebhooksService </title>
<polygon fill="#fb8072" stroke="black" points="679.86,-214.8 558.14,-214.8 558.14,-178.8 679.86,-178.8 679.86,-214.8"/>
<text text-anchor="middle" x="619" y="-192.6" font-family="Times,serif" font-size="14.00">WebhooksService </text>
</g>
<!-- SubscriptionModule&#45;&gt;WebhooksService  -->
<g id="edge6" class="edge">
<title>SubscriptionModule&#45;&gt;WebhooksService </title>
<path fill="none" stroke="black" stroke-dasharray="5,2" d="M698.75,-143.8C681.59,-143.8 667.77,-143.8 667.77,-143.8 667.77,-143.8 667.77,-168.56 667.77,-168.56"/>
<polygon fill="black" stroke="black" points="664.27,-168.56 667.77,-178.56 671.27,-168.56 664.27,-168.56"/>
</g>
<!-- AuthService -->
<g id="node8" class="node">
<title>AuthService</title>
<ellipse fill="#fdb462" stroke="black" cx="949" cy="-66.8" rx="59.11" ry="18"/>
<text text-anchor="middle" x="949" y="-62.6" font-family="Times,serif" font-size="14.00">AuthService</text>
</g>
<!-- AuthService&#45;&gt;SubscriptionModule -->
<g id="edge7" class="edge">
<title>AuthService&#45;&gt;SubscriptionModule</title>
<path fill="none" stroke="black" d="M948.91,-85.04C948.91,-100.37 948.91,-119.8 948.91,-119.8 948.91,-119.8 839.19,-119.8 839.19,-119.8"/>
<polygon fill="black" stroke="black" points="839.19,-116.3 829.19,-119.8 839.19,-123.3 839.19,-116.3"/>
</g>
<!-- CronSubscriptionService -->
<g id="node9" class="node">
<title>CronSubscriptionService</title>
<ellipse fill="#fdb462" stroke="black" cx="764" cy="-66.8" rx="108.26" ry="18"/>
<text text-anchor="middle" x="764" y="-62.6" font-family="Times,serif" font-size="14.00">CronSubscriptionService</text>
</g>
<!-- CronSubscriptionService&#45;&gt;SubscriptionModule -->
<g id="edge8" class="edge">
<title>CronSubscriptionService&#45;&gt;SubscriptionModule</title>
<path fill="none" stroke="black" d="M764,-84.91C764,-84.91 764,-103.79 764,-103.79"/>
<polygon fill="black" stroke="black" points="760.5,-103.79 764,-113.79 767.5,-103.79 760.5,-103.79"/>
</g>
<!-- Response -->
<g id="node10" class="node">
<title>Response</title>
<ellipse fill="#fdb462" stroke="black" cx="590" cy="-66.8" rx="48.1" ry="18"/>
<text text-anchor="middle" x="590" y="-62.6" font-family="Times,serif" font-size="14.00">Response</text>
</g>
<!-- Response&#45;&gt;SubscriptionModule -->
<g id="edge9" class="edge">
<title>Response&#45;&gt;SubscriptionModule</title>
<path fill="none" stroke="black" d="M598.19,-84.74C598.19,-100.12 598.19,-119.8 598.19,-119.8 598.19,-119.8 688.47,-119.8 688.47,-119.8"/>
<polygon fill="black" stroke="black" points="688.47,-123.3 698.47,-119.8 688.47,-116.3 688.47,-123.3"/>
</g>
<!-- SubscriptionService -->
<g id="node11" class="node">
<title>SubscriptionService</title>
<ellipse fill="#fdb462" stroke="black" cx="435" cy="-66.8" rx="88.63" ry="18"/>
<text text-anchor="middle" x="435" y="-62.6" font-family="Times,serif" font-size="14.00">SubscriptionService</text>
</g>
<!-- SubscriptionService&#45;&gt;SubscriptionModule -->
<g id="edge10" class="edge">
<title>SubscriptionService&#45;&gt;SubscriptionModule</title>
<path fill="none" stroke="black" d="M435,-84.82C435,-102.17 435,-125.8 435,-125.8 435,-125.8 688.61,-125.8 688.61,-125.8"/>
<polygon fill="black" stroke="black" points="688.61,-129.3 698.61,-125.8 688.61,-122.3 688.61,-129.3"/>
</g>
<!-- UsersService -->
<g id="node12" class="node">
<title>UsersService</title>
<ellipse fill="#fdb462" stroke="black" cx="266" cy="-66.8" rx="61.97" ry="18"/>
<text text-anchor="middle" x="266" y="-62.6" font-family="Times,serif" font-size="14.00">UsersService</text>
</g>
<!-- UsersService&#45;&gt;SubscriptionModule -->
<g id="edge11" class="edge">
<title>UsersService&#45;&gt;SubscriptionModule</title>
<path fill="none" stroke="black" d="M266,-84.91C266,-104.14 266,-131.8 266,-131.8 266,-131.8 688.64,-131.8 688.64,-131.8"/>
<polygon fill="black" stroke="black" points="688.64,-135.3 698.64,-131.8 688.64,-128.3 688.64,-135.3"/>
</g>
<!-- WebhooksService -->
<g id="node13" class="node">
<title>WebhooksService</title>
<ellipse fill="#fdb462" stroke="black" cx="105" cy="-66.8" rx="81.09" ry="18"/>
<text text-anchor="middle" x="105" y="-62.6" font-family="Times,serif" font-size="14.00">WebhooksService</text>
</g>
<!-- WebhooksService&#45;&gt;SubscriptionModule -->
<g id="edge12" class="edge">
<title>WebhooksService&#45;&gt;SubscriptionModule</title>
<path fill="none" stroke="black" d="M105,-85.08C105,-106.12 105,-137.8 105,-137.8 105,-137.8 688.71,-137.8 688.71,-137.8"/>
<polygon fill="black" stroke="black" points="688.71,-141.3 698.71,-137.8 688.71,-134.3 688.71,-141.3"/>
</g>
</g>
</svg>
