<?xml version="1.0" encoding="UTF-8" standalone="no"?>
<!DOCTYPE svg PUBLIC "-//W3C//DTD SVG 1.1//EN"
 "http://www.w3.org/Graphics/SVG/1.1/DTD/svg11.dtd">
<!-- Generated by graphviz version 5.0.0 (20220707.1540)
 -->
<!-- Title: dependencies Pages: 1 -->
<svg width="1086pt" height="174pt"
 viewBox="0.00 0.00 1086.00 173.80" xmlns="http://www.w3.org/2000/svg" xmlns:xlink="http://www.w3.org/1999/xlink">
<g id="graph0" class="graph" transform="scale(1 1) rotate(0) translate(4 169.8)">
<title>dependencies</title>
<polygon fill="white" stroke="transparent" points="-4,4 -4,-169.8 1082,-169.8 1082,4 -4,4"/>
<text text-anchor="middle" x="539" y="-8.2" font-family="sans-serif" font-size="14.00">dependencies</text>
<g id="clust1" class="cluster">
<title>cluster_PromotionalCodesModule</title>
<polygon fill="none" stroke="black" stroke-dasharray="1,5" points="8,-32.8 8,-157.8 1070,-157.8 1070,-32.8 8,-32.8"/>
</g>
<g id="clust6" class="cluster">
<title>cluster_PromotionalCodesModule_providers</title>
<polygon fill="none" stroke="black" points="234,-40.8 234,-92.8 1062,-92.8 1062,-40.8 234,-40.8"/>
</g>
<g id="clust3" class="cluster">
<title>cluster_PromotionalCodesModule_imports</title>
<polygon fill="none" stroke="black" points="16,-40.8 16,-92.8 226,-92.8 226,-40.8 16,-40.8"/>
</g>
<!-- AuthModule -->
<g id="node1" class="node">
<title>AuthModule</title>
<polygon fill="#8dd3c7" stroke="black" points="217.55,-84.8 214.55,-88.8 193.55,-88.8 190.55,-84.8 130.45,-84.8 130.45,-48.8 217.55,-48.8 217.55,-84.8"/>
<text text-anchor="middle" x="174" y="-62.6" font-family="Times,serif" font-size="14.00">AuthModule</text>
</g>
<!-- PromotionalCodesModule -->
<g id="node4" class="node">
<title>PromotionalCodesModule</title>
<polygon fill="#8dd3c7" stroke="black" points="663.77,-149.8 660.77,-153.8 639.77,-153.8 636.77,-149.8 500.23,-149.8 500.23,-113.8 663.77,-113.8 663.77,-149.8"/>
<text text-anchor="middle" x="582" y="-127.6" font-family="Times,serif" font-size="14.00">PromotionalCodesModule</text>
</g>
<!-- AuthModule&#45;&gt;PromotionalCodesModule -->
<g id="edge1" class="edge">
<title>AuthModule&#45;&gt;PromotionalCodesModule</title>
<path fill="none" stroke="black" d="M174,-84.91C174,-104.14 174,-131.8 174,-131.8 174,-131.8 489.93,-131.8 489.93,-131.8"/>
<polygon fill="black" stroke="black" points="489.93,-135.3 499.93,-131.8 489.93,-128.3 489.93,-135.3"/>
</g>
<!-- EmailSender -->
<g id="node2" class="node">
<title>EmailSender</title>
<polygon fill="#8dd3c7" stroke="black" points="112.31,-84.8 109.31,-88.8 88.31,-88.8 85.31,-84.8 23.69,-84.8 23.69,-48.8 112.31,-48.8 112.31,-84.8"/>
<text text-anchor="middle" x="68" y="-62.6" font-family="Times,serif" font-size="14.00">EmailSender</text>
</g>
<!-- EmailSender&#45;&gt;PromotionalCodesModule -->
<g id="edge2" class="edge">
<title>EmailSender&#45;&gt;PromotionalCodesModule</title>
<path fill="none" stroke="black" d="M68,-85.09C68,-107.01 68,-140.8 68,-140.8 68,-140.8 489.99,-140.8 489.99,-140.8"/>
<polygon fill="black" stroke="black" points="489.99,-144.3 499.99,-140.8 489.99,-137.3 489.99,-144.3"/>
</g>
<!-- Response -->
<g id="node3" class="node">
<title>Response</title>
<ellipse fill="#8dd3c7" stroke="black" cx="1006" cy="-66.8" rx="48.1" ry="18"/>
<text text-anchor="middle" x="1006" y="-62.6" font-family="Times,serif" font-size="14.00">Response</text>
</g>
<!-- Response&#45;&gt;PromotionalCodesModule -->
<g id="edge3" class="edge">
<title>Response&#45;&gt;PromotionalCodesModule</title>
<path fill="none" stroke="black" d="M1022.02,-83.96C1022.02,-105.82 1022.02,-140.8 1022.02,-140.8 1022.02,-140.8 673.99,-140.8 673.99,-140.8"/>
<polygon fill="black" stroke="black" points="673.99,-137.3 663.99,-140.8 673.99,-144.3 673.99,-137.3"/>
</g>
<!-- Response&#45;&gt;PromotionalCodesModule -->
<g id="edge6" class="edge">
<title>Response&#45;&gt;PromotionalCodesModule</title>
<path fill="none" stroke="black" d="M989.98,-83.88C989.98,-103.14 989.98,-131.8 989.98,-131.8 989.98,-131.8 674.07,-131.8 674.07,-131.8"/>
<polygon fill="black" stroke="black" points="674.07,-128.3 664.07,-131.8 674.07,-135.3 674.07,-128.3"/>
</g>
<!-- AuthService -->
<g id="node5" class="node">
<title>AuthService</title>
<ellipse fill="#fdb462" stroke="black" cx="881" cy="-66.8" rx="59.11" ry="18"/>
<text text-anchor="middle" x="881" y="-62.6" font-family="Times,serif" font-size="14.00">AuthService</text>
</g>
<!-- AuthService&#45;&gt;PromotionalCodesModule -->
<g id="edge4" class="edge">
<title>AuthService&#45;&gt;PromotionalCodesModule</title>
<path fill="none" stroke="black" d="M881,-84.83C881,-101.2 881,-122.8 881,-122.8 881,-122.8 674.1,-122.8 674.1,-122.8"/>
<polygon fill="black" stroke="black" points="674.1,-119.3 664.1,-122.8 674.1,-126.3 674.1,-119.3"/>
</g>
<!-- PromotionalCodesService -->
<g id="node6" class="node">
<title>PromotionalCodesService</title>
<ellipse fill="#fdb462" stroke="black" cx="692" cy="-66.8" rx="111.77" ry="18"/>
<text text-anchor="middle" x="692" y="-62.6" font-family="Times,serif" font-size="14.00">PromotionalCodesService</text>
</g>
<!-- PromotionalCodesService&#45;&gt;PromotionalCodesModule -->
<g id="edge5" class="edge">
<title>PromotionalCodesService&#45;&gt;PromotionalCodesModule</title>
<path fill="none" stroke="black" d="M622,-80.9C622,-80.9 622,-103.52 622,-103.52"/>
<polygon fill="black" stroke="black" points="618.5,-103.52 622,-113.52 625.5,-103.52 618.5,-103.52"/>
</g>
<!-- SubscriptionService -->
<g id="node7" class="node">
<title>SubscriptionService</title>
<ellipse fill="#fdb462" stroke="black" cx="473" cy="-66.8" rx="88.63" ry="18"/>
<text text-anchor="middle" x="473" y="-62.6" font-family="Times,serif" font-size="14.00">SubscriptionService</text>
</g>
<!-- SubscriptionService&#45;&gt;PromotionalCodesModule -->
<g id="edge7" class="edge">
<title>SubscriptionService&#45;&gt;PromotionalCodesModule</title>
<path fill="none" stroke="black" d="M530.96,-80.58C530.96,-80.58 530.96,-103.35 530.96,-103.35"/>
<polygon fill="black" stroke="black" points="527.46,-103.35 530.96,-113.35 534.46,-103.35 527.46,-103.35"/>
</g>
<!-- UsersService -->
<g id="node8" class="node">
<title>UsersService</title>
<ellipse fill="#fdb462" stroke="black" cx="304" cy="-66.8" rx="61.97" ry="18"/>
<text text-anchor="middle" x="304" y="-62.6" font-family="Times,serif" font-size="14.00">UsersService</text>
</g>
<!-- UsersService&#45;&gt;PromotionalCodesModule -->
<g id="edge8" class="edge">
<title>UsersService&#45;&gt;PromotionalCodesModule</title>
<path fill="none" stroke="black" d="M304,-84.83C304,-101.2 304,-122.8 304,-122.8 304,-122.8 490.09,-122.8 490.09,-122.8"/>
<polygon fill="black" stroke="black" points="490.09,-126.3 500.09,-122.8 490.09,-119.3 490.09,-126.3"/>
</g>
</g>
</svg>
