<?xml version="1.0" encoding="UTF-8" standalone="no"?>
<!DOCTYPE svg PUBLIC "-//W3C//DTD SVG 1.1//EN"
 "http://www.w3.org/Graphics/SVG/1.1/DTD/svg11.dtd">
<!-- Generated by graphviz version 5.0.0 (20220707.1540)
 -->
<!-- Title: dependencies Pages: 1 -->
<svg width="412pt" height="247pt"
 viewBox="0.00 0.00 412.00 246.80" xmlns="http://www.w3.org/2000/svg" xmlns:xlink="http://www.w3.org/1999/xlink">
<g id="graph0" class="graph" transform="scale(1 1) rotate(0) translate(4 242.8)">
<title>dependencies</title>
<polygon fill="white" stroke="transparent" points="-4,4 -4,-242.8 408,-242.8 408,4 -4,4"/>
<text text-anchor="middle" x="202" y="-8.2" font-family="sans-serif" font-size="14.00">dependencies</text>
<g id="clust1" class="cluster">
<title>cluster_BooksModule</title>
<polygon fill="none" stroke="black" stroke-dasharray="1,5" points="8,-32.8 8,-230.8 396,-230.8 396,-32.8 8,-32.8"/>
</g>
<g id="clust6" class="cluster">
<title>cluster_BooksModule_providers</title>
<polygon fill="none" stroke="black" points="128,-40.8 128,-92.8 388,-92.8 388,-40.8 128,-40.8"/>
</g>
<g id="clust3" class="cluster">
<title>cluster_BooksModule_imports</title>
<polygon fill="none" stroke="black" points="16,-40.8 16,-92.8 120,-92.8 120,-40.8 16,-40.8"/>
</g>
<g id="clust4" class="cluster">
<title>cluster_BooksModule_exports</title>
<polygon fill="none" stroke="black" points="209,-170.8 209,-222.8 323,-222.8 323,-170.8 209,-170.8"/>
</g>
<!-- AuthModule -->
<g id="node1" class="node">
<title>AuthModule</title>
<polygon fill="#8dd3c7" stroke="black" points="111.55,-84.8 108.55,-88.8 87.55,-88.8 84.55,-84.8 24.45,-84.8 24.45,-48.8 111.55,-48.8 111.55,-84.8"/>
<text text-anchor="middle" x="68" y="-62.6" font-family="Times,serif" font-size="14.00">AuthModule</text>
</g>
<!-- BooksModule -->
<g id="node3" class="node">
<title>BooksModule</title>
<polygon fill="#8dd3c7" stroke="black" points="313.84,-149.8 310.84,-153.8 289.84,-153.8 286.84,-149.8 218.16,-149.8 218.16,-113.8 313.84,-113.8 313.84,-149.8"/>
<text text-anchor="middle" x="266" y="-127.6" font-family="Times,serif" font-size="14.00">BooksModule</text>
</g>
<!-- AuthModule&#45;&gt;BooksModule -->
<g id="edge1" class="edge">
<title>AuthModule&#45;&gt;BooksModule</title>
<path fill="none" stroke="black" d="M68,-84.91C68,-104.14 68,-131.8 68,-131.8 68,-131.8 208.32,-131.8 208.32,-131.8"/>
<polygon fill="black" stroke="black" points="208.32,-135.3 218.32,-131.8 208.32,-128.3 208.32,-135.3"/>
</g>
<!-- Response -->
<g id="node2" class="node">
<title>Response</title>
<ellipse fill="#8dd3c7" stroke="black" cx="332" cy="-66.8" rx="48.1" ry="18"/>
<text text-anchor="middle" x="332" y="-62.6" font-family="Times,serif" font-size="14.00">Response</text>
</g>
<!-- Response&#45;&gt;BooksModule -->
<g id="edge2" class="edge">
<title>Response&#45;&gt;BooksModule</title>
<path fill="none" stroke="black" d="M293.86,-77.83C293.86,-77.83 293.86,-103.58 293.86,-103.58"/>
<polygon fill="black" stroke="black" points="290.36,-103.58 293.86,-113.58 297.36,-103.58 290.36,-103.58"/>
</g>
<!-- Response&#45;&gt;BooksModule -->
<g id="edge5" class="edge">
<title>Response&#45;&gt;BooksModule</title>
<path fill="none" stroke="black" d="M303.76,-81.55C303.76,-81.55 303.76,-103.39 303.76,-103.39"/>
<polygon fill="black" stroke="black" points="300.26,-103.39 303.76,-113.39 307.26,-103.39 300.26,-103.39"/>
</g>
<!-- BooksService  -->
<g id="node4" class="node">
<title>BooksService </title>
<polygon fill="#fb8072" stroke="black" points="314.77,-214.8 217.23,-214.8 217.23,-178.8 314.77,-178.8 314.77,-214.8"/>
<text text-anchor="middle" x="266" y="-192.6" font-family="Times,serif" font-size="14.00">BooksService </text>
</g>
<!-- BooksModule&#45;&gt;BooksService  -->
<g id="edge3" class="edge">
<title>BooksModule&#45;&gt;BooksService </title>
<path fill="none" stroke="black" stroke-dasharray="5,2" d="M266,-149.91C266,-149.91 266,-168.79 266,-168.79"/>
<polygon fill="black" stroke="black" points="262.5,-168.79 266,-178.79 269.5,-168.79 262.5,-168.79"/>
</g>
<!-- BooksService -->
<g id="node5" class="node">
<title>BooksService</title>
<ellipse fill="#fdb462" stroke="black" cx="201" cy="-66.8" rx="64.86" ry="18"/>
<text text-anchor="middle" x="201" y="-62.6" font-family="Times,serif" font-size="14.00">BooksService</text>
</g>
<!-- BooksService&#45;&gt;BooksModule -->
<g id="edge4" class="edge">
<title>BooksService&#45;&gt;BooksModule</title>
<path fill="none" stroke="black" d="M242,-80.9C242,-80.9 242,-103.52 242,-103.52"/>
<polygon fill="black" stroke="black" points="238.5,-103.52 242,-113.52 245.5,-103.52 238.5,-103.52"/>
</g>
</g>
</svg>
